<svg xmlns="http://www.w3.org/2000/svg" version="1.1" xmlns:xlink="http://www.w3.org/1999/xlink" xmlns:svgjs="http://svgjs.dev/svgjs" width="44" height="45"><svg width="44" height="45" viewBox="0 0 44 45" fill="none" xmlns="http://www.w3.org/2000/svg">
<path d="M25.9226 23.7645L25.7593 23.9282L25.9193 24.0951L42.9164 41.8176L41.1377 43.5758L22.4233 23.9344L41.3697 4.74883L43.1481 6.50677L25.9226 23.7645ZM5.87016 44.272L4.09178 42.514L18.8034 27.0625L29.5099 38.3216L27.749 39.8689L18.9739 30.7381L18.8019 30.5591L18.6316 30.7397L5.87016 44.272ZM19.2085 17.3577L28.9228 7.29769L30.9208 9.07524L19.2718 21.2678L0.34305 1.87192L2.10362 0.324931L18.8701 17.3593L19.0402 17.532L19.2085 17.3577ZM11.9221 24.3281L12.079 24.1658L11.924 24.0016L2.21074 13.714L3.99252 11.9527L15.6546 23.9329L3.75598 36.3735L1.97764 34.6156L11.9221 24.3281Z" fill="#DC7DA6" stroke="#DC7DA6" stroke-width="0.472642"></path>
</svg><style>@media (prefers-color-scheme: light) { :root { filter: none; } }
@media (prefers-color-scheme: dark) { :root { filter: none; } }
</style></svg>